# Blender v2.82 (sub 7) OBJ File: ''
# www.blender.org
mtllib Edge Case 3.mtl
o Cube_Cube.001
v -10.000000 -10.000000 -1.219472
v -10.000000 -10.000000 1.219468
v -10.000000 10.000000 1.219472
v -10.000000 10.000000 -1.219468
v 10.000000 10.000000 1.219472
v 10.000000 10.000000 -1.219468
v 10.000000 -10.000000 1.219468
v 10.000000 -10.000000 -1.219472
vt 0.625000 0.000000
vt 0.375000 0.250000
vt 0.375000 0.000000
vt 0.625000 0.250000
vt 0.375000 0.500000
vt 0.625000 0.500000
vt 0.375000 0.750000
vt 0.625000 0.750000
vt 0.375000 1.000000
vt 0.125000 0.750000
vt 0.125000 0.500000
vt 0.875000 0.500000
vt 0.625000 1.000000
vt 0.875000 0.750000
vn -1.0000 0.0000 0.0000
vn 0.0000 1.0000 0.0000
vn 1.0000 0.0000 0.0000
vn 0.0000 -1.0000 0.0000
vn 0.0000 0.0000 -1.0000
vn 0.0000 -0.0000 1.0000
usemtl None.010
s 1
f 2/1/1 4/2/1 1/3/1
f 3/4/2 6/5/2 4/2/2
f 5/6/3 8/7/3 6/5/3
f 7/8/4 1/9/4 8/7/4
f 6/5/5 1/10/5 4/11/5
f 3/12/6 7/8/6 5/6/6
f 2/1/1 3/4/1 4/2/1
f 3/4/2 5/6/2 6/5/2
f 5/6/3 7/8/3 8/7/3
f 7/8/4 2/13/4 1/9/4
f 6/5/5 8/7/5 1/10/5
f 3/12/6 2/14/6 7/8/6
o Cube.001_Cube.001
v 8.945710 -5.846591 8.751509
v 8.945710 -5.846591 10.177459
v 8.945710 5.846589 10.177461
v 8.945710 5.846589 8.751511
v 20.638901 5.846589 10.177461
v 20.638901 5.846589 8.751511
v 20.638901 -5.846591 10.177459
v 20.638901 -5.846591 8.751509
vt 0.625000 0.000000
vt 0.375000 0.250000
vt 0.375000 0.000000
vt 0.625000 0.250000
vt 0.375000 0.500000
vt 0.625000 0.500000
vt 0.375000 0.750000
vt 0.625000 0.750000
vt 0.375000 1.000000
vt 0.125000 0.750000
vt 0.125000 0.500000
vt 0.875000 0.500000
vt 0.625000 1.000000
vt 0.875000 0.750000
vn -1.0000 -0.0000 0.0000
vn 0.0000 1.0000 0.0000
vn 1.0000 -0.0000 0.0000
vn 0.0000 -1.0000 0.0000
vn 0.0000 0.0000 -1.0000
vn 0.0000 -0.0000 1.0000
usemtl None.010
s 1
f 10/15/7 12/16/7 9/17/7
f 11/18/8 14/19/8 12/16/8
f 13/20/9 16/21/9 14/19/9
f 15/22/10 9/23/10 16/21/10
f 14/19/11 9/24/11 12/25/11
f 11/26/12 15/22/12 13/20/12
f 10/15/7 11/18/7 12/16/7
f 11/18/8 13/20/8 14/19/8
f 13/20/9 15/22/9 16/21/9
f 15/22/10 10/27/10 9/23/10
f 14/19/11 16/21/11 9/24/11
f 11/26/12 10/28/12 15/22/12
