# Blender v2.82 (sub 7) OBJ File: ''
# www.blender.org
mtllib Edge Case 2.mtl
o Cube.030
v 56.002048 9.999998 10.000002
v 36.002048 9.999998 10.000002
v 36.002048 -10.000002 9.999998
v 56.002048 -10.000002 9.999998
v 56.002048 -9.999998 -10.000002
v 36.002048 -9.999998 -10.000002
v 36.002048 10.000002 -9.999998
v 56.002048 10.000002 -9.999998
v -10.000000 -9.999998 -10.000002
v -10.000000 -10.000002 9.999998
v -10.000000 9.999998 10.000002
v -10.000000 10.000002 -9.999998
v 10.000000 9.999998 10.000002
v 10.000000 10.000002 -9.999998
v 10.000000 -9.999998 -10.000002
v 10.000000 -10.000002 9.999998
vt 0.875000 0.500000
vt 0.625000 0.750000
vt 0.625000 0.500000
vt 0.375000 1.000000
vt 0.375000 0.750000
vt 0.625000 0.000000
vt 0.375000 0.250000
vt 0.375000 0.000000
vt 0.375000 0.500000
vt 0.125000 0.750000
vt 0.125000 0.500000
vt 0.625000 0.250000
vt 0.625000 0.000000
vt 0.375000 0.250000
vt 0.375000 0.000000
vt 0.625000 0.250000
vt 0.375000 0.500000
vt 0.000000 0.000000
vt 0.375000 0.750000
vt 0.625000 0.750000
vt 0.375000 1.000000
vt 0.125000 0.750000
vt 0.125000 0.500000
vt 0.875000 0.500000
vt 0.625000 0.500000
vt 0.875000 0.750000
vt 0.625000 1.000000
vt 0.625000 1.000000
vt 0.875000 0.750000
vn 0.0000 -0.0000 1.0000
vn 0.0000 -1.0000 -0.0000
vn -1.0000 0.0000 0.0000
vn 0.0000 0.0000 -1.0000
vn 1.0000 0.0000 0.0000
vn 0.0000 1.0000 0.0000
vn 0.6097 0.0000 -0.7926
vn 0.6097 -0.7926 -0.0000
usemtl Material.025
s 1
f 2/1/1 4/2/1 1/3/1
f 4/2/2 6/4/2 5/5/2
f 3/6/3 7/7/3 6/8/3
f 8/9/4 6/10/4 7/11/4
f 1/3/5 5/5/5 8/9/5
f 2/12/6 8/9/6 7/7/6
f 10/13/3 12/14/3 9/15/3
f 11/16/6 14/17/6 12/14/6
f 14/17/7 2/18/7 15/19/7
f 16/20/2 9/21/2 15/19/2
f 14/17/4 9/22/4 12/23/4
f 11/24/1 16/20/1 13/25/1
f 14/17/2 2/18/2 13/25/2
f 15/19/8 2/18/8 16/20/8
f 13/25/1 16/20/1 2/18/1
f 2/1/1 3/26/1 4/2/1
f 4/2/2 3/27/2 6/4/2
f 3/6/3 2/12/3 7/7/3
f 8/9/4 5/5/4 6/10/4
f 1/3/5 4/2/5 5/5/5
f 2/12/6 1/3/6 8/9/6
f 10/13/3 11/16/3 12/14/3
f 11/16/6 13/25/6 14/17/6
f 16/20/2 10/28/2 9/21/2
f 14/17/4 15/19/4 9/22/4
f 11/24/1 10/29/1 16/20/1
